<svg width="419" height="660" viewBox="0 0 419 660" fill="none" xmlns="http://www.w3.org/2000/svg">
<g filter="url(#filter0_d_0_4910)">
<path fill-rule="evenodd" clip-rule="evenodd" d="M88.776 55.5695H280.009C298.35 55.5695 313.217 69.8048 313.217 87.365V522.635C313.217 540.195 298.35 554.431 280.009 554.431H88.776C70.4357 554.431 55.5679 540.195 55.5679 522.635V87.365C55.5679 69.8048 70.4357 55.5695 88.776 55.5695Z" fill="#213648"/>
</g>
<path opacity="0.595562" fill-rule="evenodd" clip-rule="evenodd" d="M280.749 55H87.9226C78.92 55.549 70.6174 59.6569 63.0146 67.3239C67.9041 63.0559 76.6249 57.3446 88.1546 57.3446C88.1546 57.3446 272.83 57.3446 280.517 57.3446C292.046 57.3446 300.767 63.0559 305.656 67.3239C298.054 59.6569 289.751 55.549 280.749 55Z" fill="url(#paint0_linear_0_4910)" fill-opacity="0.65"/>
<path opacity="0.75" fill-rule="evenodd" clip-rule="evenodd" d="M307.999 517.671V89.9818C307.999 78.5065 303.782 74.2644 301.266 71.5405C298.75 68.8166 298.643 67.4272 302.258 69.4839C305.873 71.5405 313.103 77.5306 313.103 89.9818V517.671C313.103 530.122 305.873 536.112 302.258 538.169C298.643 540.225 298.75 538.836 301.266 536.112C303.782 533.388 307.999 529.146 307.999 517.671Z" fill="url(#paint1_linear_0_4910)"/>
<path opacity="0.75" fill-rule="evenodd" clip-rule="evenodd" d="M60.672 517.671V89.9818C60.672 78.5065 64.8894 74.2644 67.4053 71.5405C69.9212 68.8166 70.0283 67.4272 66.4134 69.4839C62.7984 71.5405 55.568 77.5306 55.568 89.9818V517.671C55.568 530.122 62.7984 536.112 66.4134 538.169C70.0283 540.225 69.9212 538.836 67.4053 536.112C64.8894 533.388 60.672 529.146 60.672 517.671Z" fill="url(#paint2_linear_0_4910)"/>
<path fill-rule="evenodd" clip-rule="evenodd" d="M53 158.556C53 157.452 53.8954 156.556 55 156.556H55.9645C57.0691 156.556 57.9645 157.452 57.9645 158.556V218.907C57.9645 220.012 57.0691 220.907 55.9645 220.907H55C53.8954 220.907 53 220.012 53 218.907V158.556Z" fill="#2E423C"/>
<path fill-rule="evenodd" clip-rule="evenodd" d="M310.535 211.043C310.535 209.939 311.431 209.043 312.535 209.043H313.5C314.605 209.043 315.5 209.939 315.5 211.043V253.993C315.5 255.098 314.605 255.993 313.5 255.993H312.535C311.431 255.993 310.535 255.098 310.535 253.993V211.043Z" fill="#2E423C"/>
<g clip-path="url(#clip0_0_4910)">
<path fill-rule="evenodd" clip-rule="evenodd" d="M161.676 67.4445L87.2698 67.4445C76.1653 67.4445 68.0742 75.0078 68.0742 84.8859V507.276C68.0742 520.155 80.5765 531.567 94.7134 531.567H274.046C287.664 531.567 300.686 520.067 300.686 507.276V86.0276C300.686 74.188 291.896 67.5149 281.49 67.4445L205.904 67.4445C205.618 67.4914 200.425 69.6262 198.231 75.0078C196.036 80.3893 191.621 84.6793 186.787 84.6793H181.172C178.874 84.6793 172.824 82.4496 169.76 75.0078C166.697 67.5659 161.963 67.4914 161.676 67.4445Z" fill="white"/>
<mask id="mask0_0_4910" style="mask-type:alpha" maskUnits="userSpaceOnUse" x="68" y="67" width="233" height="465">
<path fill-rule="evenodd" clip-rule="evenodd" d="M161.676 67.4445L87.2698 67.4445C76.1653 67.4445 68.0742 75.0078 68.0742 84.8859V507.276C68.0742 520.155 80.5765 531.567 94.7134 531.567H274.046C287.664 531.567 300.686 520.067 300.686 507.276V86.0276C300.686 74.188 291.896 67.5149 281.49 67.4445L205.904 67.4445C205.618 67.4914 200.425 69.6262 198.231 75.0078C196.036 80.3893 191.621 84.6793 186.787 84.6793H181.172C178.874 84.6793 172.824 82.4496 169.76 75.0078C166.697 67.5659 161.963 67.4914 161.676 67.4445Z" fill="white"/>
</mask>
<g mask="url(#mask0_0_4910)">
<rect x="68" y="67.4445" width="233" height="465" fill="url(#paint3_linear_0_4910)"/>
<path d="M147.504 196V178.672H143.376V176.032C144.699 176.032 145.765 175.909 146.576 175.664C147.397 175.408 148.011 175.045 148.416 174.576C148.821 174.096 149.061 173.525 149.136 172.864H152.24V196H147.504ZM157.496 196V193.696V192.512C157.496 191.339 157.714 190.325 158.152 189.472C158.589 188.608 159.165 187.861 159.88 187.232C160.605 186.592 161.394 186.032 162.248 185.552C163.112 185.072 163.976 184.619 164.84 184.192C165.704 183.765 166.493 183.339 167.208 182.912C167.933 182.475 168.514 181.989 168.952 181.456C169.389 180.923 169.608 180.293 169.608 179.568C169.608 178.64 169.282 177.883 168.632 177.296C167.992 176.709 167.112 176.416 165.992 176.416C164.829 176.416 163.842 176.752 163.032 177.424C162.221 178.096 161.72 179.109 161.528 180.464H157.064C157.085 178.992 157.426 177.659 158.088 176.464C158.76 175.259 159.762 174.304 161.096 173.6C162.429 172.896 164.104 172.544 166.12 172.544C167.848 172.544 169.336 172.837 170.584 173.424C171.842 174.011 172.813 174.827 173.496 175.872C174.178 176.917 174.52 178.139 174.52 179.536C174.52 180.699 174.306 181.701 173.88 182.544C173.453 183.387 172.888 184.107 172.184 184.704C171.48 185.301 170.706 185.824 169.864 186.272C169.021 186.72 168.178 187.136 167.336 187.52C166.504 187.904 165.736 188.299 165.032 188.704C164.328 189.099 163.762 189.547 163.336 190.048C162.909 190.549 162.696 191.152 162.696 191.856V192.064H174.488V196H157.496ZM182.704 179.856V184.864H177.584V179.856H182.704ZM182.704 190.912V195.904H177.584V190.912H182.704ZM196.451 172.864H201.043V186.96H204.611V190.88H201.043V196H196.547L196.563 190.88H185.907V187.04L196.451 172.864ZM190.227 186.96H196.563V178.48L190.227 186.96ZM215.435 196.352C213.995 196.352 212.651 196.075 211.403 195.52C210.155 194.965 209.137 194.187 208.347 193.184C207.558 192.171 207.115 190.987 207.019 189.632H211.467C211.659 190.528 212.086 191.259 212.747 191.824C213.409 192.379 214.241 192.656 215.243 192.656C216.353 192.656 217.323 192.395 218.155 191.872C218.998 191.349 219.627 190.517 220.043 189.376C220.47 188.235 220.619 186.741 220.491 184.896C220.193 185.461 219.777 185.957 219.243 186.384C218.721 186.8 218.107 187.125 217.403 187.36C216.699 187.584 215.915 187.696 215.051 187.696C213.483 187.696 212.091 187.403 210.875 186.816C209.67 186.219 208.721 185.376 208.027 184.288C207.345 183.189 207.003 181.888 207.003 180.384C207.003 178.869 207.366 177.52 208.091 176.336C208.817 175.152 209.83 174.224 211.131 173.552C212.433 172.88 213.958 172.544 215.707 172.544C217.67 172.544 219.361 173.013 220.779 173.952C222.209 174.88 223.302 176.203 224.059 177.92C224.827 179.627 225.211 181.637 225.211 183.952C225.211 186.715 224.817 189.019 224.027 190.864C223.249 192.699 222.129 194.075 220.667 194.992C219.206 195.899 217.462 196.352 215.435 196.352ZM215.851 183.984C216.502 183.984 217.131 183.84 217.739 183.552C218.358 183.253 218.865 182.88 219.259 182.432C219.654 181.984 219.851 181.52 219.851 181.04C219.862 180.005 219.697 179.12 219.355 178.384C219.025 177.637 218.555 177.067 217.947 176.672C217.35 176.277 216.651 176.08 215.851 176.08C215.115 176.08 214.459 176.251 213.883 176.592C213.307 176.933 212.854 177.413 212.523 178.032C212.193 178.651 212.027 179.365 212.027 180.176C212.027 181.381 212.379 182.32 213.083 182.992C213.787 183.653 214.71 183.984 215.851 183.984Z" fill="white"/>
</g>
</g>
<g clip-path="url(#clip1_0_4910)">
<g filter="url(#filter1_d_0_4910)">
<rect x="75" y="222" width="218" height="87" rx="5" fill="#FBFCFE"/>
</g>
<g clip-path="url(#clip2_0_4910)">
<path d="M91.81 248V240.77H94.47C94.9967 240.77 95.4683 240.862 95.885 241.045C96.3017 241.225 96.63 241.492 96.87 241.845C97.1133 242.198 97.235 242.63 97.235 243.14C97.235 243.62 97.1283 244.03 96.915 244.37C96.7017 244.71 96.4017 244.97 96.015 245.15C95.6317 245.33 95.18 245.42 94.66 245.42H93.28V248H91.81ZM93.265 244.29H94.62C94.9867 244.29 95.2867 244.173 95.52 243.94C95.7533 243.703 95.87 243.412 95.87 243.065C95.87 242.705 95.7467 242.42 95.5 242.21C95.2533 241.997 94.9533 241.89 94.6 241.89H93.265V244.29ZM99.5117 248.1C99.1817 248.1 98.8851 248.038 98.6217 247.915C98.3584 247.792 98.1501 247.613 97.9967 247.38C97.8434 247.143 97.7667 246.857 97.7667 246.52C97.7667 245.953 97.9784 245.523 98.4017 245.23C98.8251 244.933 99.4934 244.78 100.407 244.77L101.052 244.76V244.45C101.052 244.213 100.982 244.032 100.842 243.905C100.705 243.775 100.492 243.712 100.202 243.715C99.9884 243.718 99.7851 243.768 99.5917 243.865C99.4017 243.962 99.2717 244.13 99.2017 244.37H97.9867C98.0067 243.997 98.1151 243.69 98.3117 243.45C98.5084 243.207 98.7751 243.027 99.1117 242.91C99.4517 242.79 99.8367 242.73 100.267 242.73C100.797 242.73 101.222 242.797 101.542 242.93C101.862 243.06 102.093 243.248 102.237 243.495C102.38 243.738 102.452 244.028 102.452 244.365V248H101.232L101.112 247.11C100.935 247.483 100.713 247.742 100.447 247.885C100.183 248.028 99.8717 248.1 99.5117 248.1ZM100.002 247.14C100.135 247.14 100.263 247.117 100.387 247.07C100.513 247.02 100.625 246.955 100.722 246.875C100.822 246.792 100.902 246.698 100.962 246.595C101.022 246.492 101.052 246.385 101.052 246.275V245.51L100.527 245.52C100.283 245.523 100.057 245.553 99.8467 245.61C99.6367 245.663 99.4667 245.752 99.3367 245.875C99.2101 245.998 99.1467 246.165 99.1467 246.375C99.1467 246.615 99.2301 246.803 99.3967 246.94C99.5634 247.073 99.7651 247.14 100.002 247.14ZM104.364 249.65C104.01 249.65 103.76 249.62 103.614 249.56C103.47 249.503 103.399 249.475 103.399 249.475V248.545L103.909 248.565C104.132 248.578 104.312 248.567 104.449 248.53C104.585 248.497 104.689 248.452 104.759 248.395C104.832 248.338 104.884 248.278 104.914 248.215C104.944 248.155 104.965 248.107 104.979 248.07L105.074 247.785L103.064 242.83H104.509L105.749 246.2L107.004 242.83H108.429L106.334 248.03C106.154 248.47 105.964 248.807 105.764 249.04C105.564 249.273 105.347 249.433 105.114 249.52C104.884 249.607 104.634 249.65 104.364 249.65ZM108.228 248L110.818 240.77H112.358L114.943 248H113.488L112.898 246.325H110.298L109.693 248H108.228ZM110.623 245.05H112.548L111.593 242.18L110.623 245.05ZM116.029 248V240.77H118.689C119.215 240.77 119.687 240.862 120.104 241.045C120.52 241.225 120.849 241.492 121.089 241.845C121.332 242.198 121.454 242.63 121.454 243.14C121.454 243.62 121.347 244.03 121.134 244.37C120.92 244.71 120.62 244.97 120.234 245.15C119.85 245.33 119.399 245.42 118.879 245.42H117.499V248H116.029ZM117.484 244.29H118.839C119.205 244.29 119.505 244.173 119.739 243.94C119.972 243.703 120.089 243.412 120.089 243.065C120.089 242.705 119.965 242.42 119.719 242.21C119.472 241.997 119.172 241.89 118.819 241.89H117.484V244.29ZM122.552 240.77H124.007V248H122.552V240.77Z" fill="#BA4270"/>
<path opacity="0.5" d="M238.609 246.295C238.609 246.678 238.566 247.005 238.479 247.275C238.392 247.545 238.237 247.75 238.014 247.89C237.794 248.03 237.481 248.1 237.074 248.1C236.817 248.1 236.576 248.07 236.349 248.01C236.126 247.95 235.977 247.905 235.904 247.875L235.969 246.99C236.072 247.027 236.191 247.073 236.324 247.13C236.461 247.183 236.629 247.21 236.829 247.21C237.156 247.21 237.379 247.12 237.499 246.94C237.622 246.76 237.684 246.457 237.684 246.03V240.77H238.609V246.295ZM242.041 248.1C241.771 248.097 241.516 248.058 241.276 247.985C241.039 247.908 240.829 247.797 240.646 247.65C240.462 247.503 240.317 247.322 240.211 247.105C240.107 246.885 240.056 246.63 240.056 246.34V242.83H240.981V246.245C240.981 246.582 241.084 246.855 241.291 247.065C241.501 247.275 241.816 247.38 242.236 247.38C242.616 247.38 242.921 247.282 243.151 247.085C243.384 246.885 243.501 246.588 243.501 246.195V242.83H244.421V248H243.686L243.591 247.01C243.527 247.27 243.419 247.48 243.266 247.64C243.116 247.8 242.934 247.918 242.721 247.995C242.511 248.068 242.284 248.103 242.041 248.1ZM247.698 248.1C247.338 248.1 247.003 248.045 246.693 247.935C246.387 247.822 246.132 247.647 245.928 247.41C245.725 247.17 245.597 246.865 245.543 246.495H246.383C246.43 246.698 246.513 246.868 246.633 247.005C246.757 247.138 246.91 247.24 247.093 247.31C247.277 247.377 247.477 247.41 247.693 247.41C248.04 247.41 248.32 247.345 248.533 247.215C248.747 247.085 248.853 246.885 248.853 246.615C248.853 246.425 248.797 246.273 248.683 246.16C248.573 246.043 248.402 245.958 248.168 245.905L247.098 245.64C246.682 245.54 246.348 245.383 246.098 245.17C245.848 244.957 245.723 244.658 245.723 244.275C245.72 243.972 245.792 243.705 245.938 243.475C246.085 243.245 246.305 243.063 246.598 242.93C246.892 242.797 247.257 242.73 247.693 242.73C248.253 242.73 248.705 242.857 249.048 243.11C249.395 243.36 249.575 243.728 249.588 244.215H248.773C248.74 243.968 248.628 243.773 248.438 243.63C248.252 243.483 248 243.41 247.683 243.41C247.353 243.41 247.085 243.477 246.878 243.61C246.672 243.74 246.568 243.943 246.568 244.22C246.568 244.403 246.642 244.548 246.788 244.655C246.935 244.758 247.152 244.845 247.438 244.915L248.473 245.175C248.713 245.238 248.91 245.322 249.063 245.425C249.22 245.528 249.343 245.643 249.433 245.77C249.527 245.897 249.592 246.03 249.628 246.17C249.668 246.307 249.688 246.438 249.688 246.565C249.688 246.882 249.608 247.155 249.448 247.385C249.292 247.612 249.065 247.788 248.768 247.915C248.475 248.038 248.118 248.1 247.698 248.1ZM253.5 243.505H252.335V246.72C252.335 246.903 252.353 247.038 252.39 247.125C252.43 247.208 252.495 247.262 252.585 247.285C252.678 247.308 252.805 247.32 252.965 247.32H253.53V247.94C253.466 247.963 253.37 247.983 253.24 248C253.113 248.017 252.955 248.025 252.765 248.025C252.408 248.025 252.131 247.977 251.935 247.88C251.738 247.783 251.6 247.64 251.52 247.45C251.443 247.26 251.405 247.027 251.405 246.75V243.505H250.565V242.83H251.43L251.655 241.325H252.335V242.825H253.5V243.505ZM262.028 240.77H262.953V248H262.128L258.248 242.3V248H257.323V240.77H258.208L262.028 246.39V240.77ZM266.659 248.1C266.182 248.1 265.765 247.998 265.409 247.795C265.052 247.588 264.775 247.287 264.579 246.89C264.382 246.493 264.284 246.008 264.284 245.435C264.284 244.895 264.375 244.422 264.559 244.015C264.742 243.608 265.01 243.293 265.364 243.07C265.72 242.843 266.152 242.73 266.659 242.73C267.135 242.73 267.549 242.835 267.899 243.045C268.252 243.252 268.525 243.557 268.719 243.96C268.912 244.363 269.009 244.855 269.009 245.435C269.009 245.962 268.919 246.425 268.739 246.825C268.562 247.225 268.299 247.538 267.949 247.765C267.602 247.988 267.172 248.1 266.659 248.1ZM266.659 247.37C266.969 247.37 267.23 247.292 267.444 247.135C267.657 246.978 267.819 246.753 267.929 246.46C268.039 246.167 268.094 245.818 268.094 245.415C268.094 245.045 268.045 244.713 267.949 244.42C267.852 244.123 267.697 243.888 267.484 243.715C267.274 243.542 266.999 243.455 266.659 243.455C266.345 243.455 266.08 243.533 265.864 243.69C265.647 243.843 265.482 244.067 265.369 244.36C265.259 244.653 265.204 245.005 265.204 245.415C265.204 245.778 265.254 246.108 265.354 246.405C265.454 246.702 265.61 246.937 265.824 247.11C266.037 247.283 266.315 247.37 266.659 247.37ZM276.833 242.83L275.268 248H274.358L273.178 244.185L272.058 248H271.153L269.558 242.83H270.413L271.598 246.805H271.678L272.843 242.83H273.543L274.753 246.795H274.833L275.968 242.83H276.833Z" fill="#36536B"/>
</g>
<path d="M91.23 257.62V256.77H96.7V257.62H94.495V264H93.565V257.62H91.23ZM97.7025 264V256.57H98.6025V259.59C98.7325 259.377 98.9308 259.187 99.1975 259.02C99.4642 258.85 99.8042 258.765 100.218 258.765C100.554 258.765 100.859 258.828 101.133 258.955C101.406 259.078 101.623 259.255 101.783 259.485C101.943 259.715 102.023 259.988 102.023 260.305V264H101.098V260.49C101.098 260.18 100.991 259.942 100.778 259.775C100.568 259.605 100.293 259.52 99.9525 259.52C99.7192 259.52 99.5008 259.558 99.2975 259.635C99.0975 259.708 98.9342 259.822 98.8075 259.975C98.6842 260.125 98.6225 260.317 98.6225 260.55V264H97.7025ZM104.124 261.63C104.124 261.957 104.178 262.253 104.284 262.52C104.394 262.783 104.559 262.993 104.779 263.15C105.003 263.307 105.281 263.385 105.614 263.385C105.944 263.385 106.228 263.308 106.464 263.155C106.704 263.002 106.858 262.78 106.924 262.49H107.799C107.736 262.84 107.596 263.135 107.379 263.375C107.163 263.615 106.901 263.797 106.594 263.92C106.288 264.04 105.968 264.1 105.634 264.1C105.151 264.1 104.726 263.995 104.359 263.785C103.993 263.575 103.706 263.273 103.499 262.88C103.293 262.487 103.189 262.015 103.189 261.465C103.189 260.922 103.283 260.445 103.469 260.035C103.656 259.625 103.926 259.305 104.279 259.075C104.636 258.845 105.064 258.73 105.564 258.73C106.294 258.73 106.854 258.962 107.244 259.425C107.634 259.885 107.829 260.507 107.829 261.29V261.63H104.124ZM104.129 261.005H106.939C106.939 260.562 106.826 260.188 106.599 259.885C106.373 259.582 106.026 259.43 105.559 259.43C105.236 259.43 104.968 259.508 104.754 259.665C104.541 259.818 104.383 260.017 104.279 260.26C104.176 260.5 104.126 260.748 104.129 261.005ZM111.335 265.61V258.83H112.255L112.265 259.73C112.345 259.59 112.457 259.443 112.6 259.29C112.747 259.133 112.932 259.002 113.155 258.895C113.379 258.785 113.649 258.73 113.965 258.73C114.582 258.73 115.085 258.943 115.475 259.37C115.865 259.797 116.06 260.455 116.06 261.345C116.06 262.232 115.869 262.913 115.485 263.39C115.102 263.863 114.57 264.1 113.89 264.1C113.584 264.1 113.322 264.045 113.105 263.935C112.892 263.822 112.717 263.685 112.58 263.525C112.444 263.365 112.339 263.212 112.265 263.065V265.61H111.335ZM113.715 263.38C114.142 263.38 114.49 263.218 114.76 262.895C115.03 262.568 115.165 262.062 115.165 261.375C115.165 260.788 115.042 260.322 114.795 259.975C114.549 259.625 114.189 259.45 113.715 259.45C113.235 259.45 112.872 259.628 112.625 259.985C112.379 260.342 112.255 260.805 112.255 261.375C112.255 261.745 112.31 262.082 112.42 262.385C112.53 262.688 112.694 262.93 112.91 263.11C113.127 263.29 113.395 263.38 113.715 263.38ZM118.634 264.1C118.131 264.1 117.721 263.968 117.404 263.705C117.088 263.442 116.929 263.073 116.929 262.6C116.929 262.027 117.129 261.6 117.529 261.32C117.929 261.04 118.571 260.89 119.454 260.87L120.379 260.845V260.44C120.379 260.123 120.283 259.873 120.089 259.69C119.899 259.503 119.606 259.41 119.209 259.41C118.913 259.413 118.651 259.485 118.424 259.625C118.198 259.762 118.053 259.983 117.989 260.29H117.174C117.201 259.787 117.398 259.402 117.764 259.135C118.131 258.865 118.628 258.73 119.254 258.73C119.928 258.73 120.431 258.872 120.764 259.155C121.101 259.438 121.269 259.85 121.269 260.39V264H120.479L120.414 263.03C120.211 263.433 119.956 263.713 119.649 263.87C119.343 264.023 119.004 264.1 118.634 264.1ZM118.914 263.435C119.144 263.435 119.371 263.38 119.594 263.27C119.821 263.16 120.008 263.02 120.154 262.85C120.301 262.677 120.376 262.493 120.379 262.3V261.415L119.609 261.43C119.016 261.44 118.571 261.528 118.274 261.695C117.978 261.858 117.829 262.13 117.829 262.51C117.829 262.803 117.929 263.032 118.129 263.195C118.333 263.355 118.594 263.435 118.914 263.435ZM123.193 265.65C122.89 265.65 122.681 265.628 122.568 265.585C122.455 265.542 122.398 265.52 122.398 265.52V264.92L122.923 264.93C123.18 264.94 123.378 264.915 123.518 264.855C123.661 264.795 123.766 264.72 123.833 264.63C123.9 264.54 123.951 264.452 123.988 264.365L124.168 263.875L122.148 258.83H123.083L124.608 262.82L126.123 258.83H127.028L124.848 264.39C124.648 264.883 124.411 265.217 124.138 265.39C123.865 265.563 123.55 265.65 123.193 265.65ZM128.015 264V258.83H128.905V259.58C129.048 259.35 129.243 259.152 129.49 258.985C129.74 258.815 130.067 258.73 130.47 258.73C130.753 258.73 131.038 258.802 131.325 258.945C131.612 259.088 131.823 259.298 131.96 259.575C132.12 259.322 132.337 259.118 132.61 258.965C132.883 258.808 133.192 258.73 133.535 258.73C133.715 258.73 133.903 258.758 134.1 258.815C134.297 258.868 134.48 258.965 134.65 259.105C134.82 259.242 134.957 259.433 135.06 259.68C135.167 259.923 135.22 260.237 135.22 260.62V264H134.29V260.71C134.29 260.397 134.24 260.153 134.14 259.98C134.04 259.807 133.908 259.687 133.745 259.62C133.585 259.55 133.413 259.515 133.23 259.515C133.07 259.515 132.9 259.547 132.72 259.61C132.54 259.673 132.387 259.78 132.26 259.93C132.133 260.08 132.07 260.285 132.07 260.545V264H131.15V260.44C131.15 260.237 131.095 260.067 130.985 259.93C130.878 259.79 130.743 259.687 130.58 259.62C130.42 259.55 130.26 259.515 130.1 259.515C129.923 259.515 129.745 259.552 129.565 259.625C129.388 259.695 129.238 259.805 129.115 259.955C128.995 260.105 128.935 260.302 128.935 260.545V264H128.015ZM137.327 261.63C137.327 261.957 137.381 262.253 137.487 262.52C137.597 262.783 137.762 262.993 137.982 263.15C138.206 263.307 138.484 263.385 138.817 263.385C139.147 263.385 139.431 263.308 139.667 263.155C139.907 263.002 140.061 262.78 140.127 262.49H141.002C140.939 262.84 140.799 263.135 140.582 263.375C140.366 263.615 140.104 263.797 139.797 263.92C139.491 264.04 139.171 264.1 138.837 264.1C138.354 264.1 137.929 263.995 137.562 263.785C137.196 263.575 136.909 263.273 136.702 262.88C136.496 262.487 136.392 262.015 136.392 261.465C136.392 260.922 136.486 260.445 136.672 260.035C136.859 259.625 137.129 259.305 137.482 259.075C137.839 258.845 138.267 258.73 138.767 258.73C139.497 258.73 140.057 258.962 140.447 259.425C140.837 259.885 141.032 260.507 141.032 261.29V261.63H137.327ZM137.332 261.005H140.142C140.142 260.562 140.029 260.188 139.802 259.885C139.576 259.582 139.229 259.43 138.762 259.43C138.439 259.43 138.171 259.508 137.957 259.665C137.744 259.818 137.586 260.017 137.482 260.26C137.379 260.5 137.329 260.748 137.332 261.005ZM142.302 264V258.83H143.197V259.58C143.324 259.363 143.522 259.172 143.792 259.005C144.062 258.838 144.404 258.755 144.817 258.755C145.144 258.755 145.444 258.82 145.717 258.95C145.994 259.08 146.214 259.283 146.377 259.56C146.544 259.833 146.627 260.187 146.627 260.62V264H145.702V260.71C145.702 260.307 145.595 260.008 145.382 259.815C145.172 259.618 144.899 259.52 144.562 259.52C144.329 259.52 144.11 259.558 143.907 259.635C143.704 259.708 143.539 259.822 143.412 259.975C143.285 260.125 143.222 260.315 143.222 260.545V264H142.302ZM150.456 259.505H149.291V262.72C149.291 262.997 149.334 263.167 149.421 263.23C149.511 263.29 149.678 263.32 149.921 263.32H150.486V263.94C150.419 263.963 150.323 263.983 150.196 264C150.069 264.017 149.911 264.025 149.721 264.025C149.184 264.025 148.823 263.917 148.636 263.7C148.453 263.483 148.361 263.167 148.361 262.75V259.505H147.521V258.83H148.386L148.611 257.325H149.291V258.825H150.456V259.505ZM154.089 264V256.57H154.989V259.59C155.119 259.377 155.318 259.187 155.584 259.02C155.851 258.85 156.191 258.765 156.604 258.765C156.941 258.765 157.246 258.828 157.519 258.955C157.793 259.078 158.009 259.255 158.169 259.485C158.329 259.715 158.409 259.988 158.409 260.305V264H157.484V260.49C157.484 260.18 157.378 259.942 157.164 259.775C156.954 259.605 156.679 259.52 156.339 259.52C156.106 259.52 155.888 259.558 155.684 259.635C155.484 259.708 155.321 259.822 155.194 259.975C155.071 260.125 155.009 260.317 155.009 260.55V264H154.089ZM161.261 264.1C160.758 264.1 160.348 263.968 160.031 263.705C159.715 263.442 159.556 263.073 159.556 262.6C159.556 262.027 159.756 261.6 160.156 261.32C160.556 261.04 161.198 260.89 162.081 260.87L163.006 260.845V260.44C163.006 260.123 162.91 259.873 162.716 259.69C162.526 259.503 162.233 259.41 161.836 259.41C161.54 259.413 161.278 259.485 161.051 259.625C160.825 259.762 160.68 259.983 160.616 260.29H159.801C159.828 259.787 160.025 259.402 160.391 259.135C160.758 258.865 161.255 258.73 161.881 258.73C162.555 258.73 163.058 258.872 163.391 259.155C163.728 259.438 163.896 259.85 163.896 260.39V264H163.106L163.041 263.03C162.838 263.433 162.583 263.713 162.276 263.87C161.97 264.023 161.631 264.1 161.261 264.1ZM161.541 263.435C161.771 263.435 161.998 263.38 162.221 263.27C162.448 263.16 162.635 263.02 162.781 262.85C162.928 262.677 163.003 262.493 163.006 262.3V261.415L162.236 261.43C161.643 261.44 161.198 261.528 160.901 261.695C160.605 261.858 160.456 262.13 160.456 262.51C160.456 262.803 160.556 263.032 160.756 263.195C160.96 263.355 161.221 263.435 161.541 263.435ZM167.223 264.1C166.86 264.1 166.525 264.043 166.218 263.93C165.911 263.817 165.655 263.643 165.448 263.41C165.245 263.173 165.118 262.868 165.068 262.495H165.908C165.975 262.798 166.126 263.027 166.363 263.18C166.603 263.333 166.888 263.41 167.218 263.41C167.565 263.41 167.845 263.345 168.058 263.215C168.271 263.085 168.378 262.885 168.378 262.615C168.378 262.252 168.15 262.015 167.693 261.905L166.623 261.64C166.203 261.54 165.868 261.383 165.618 261.17C165.371 260.957 165.248 260.658 165.248 260.275C165.245 259.822 165.408 259.452 165.738 259.165C166.068 258.875 166.561 258.73 167.218 258.73C167.778 258.73 168.23 258.857 168.573 259.11C168.92 259.363 169.1 259.732 169.113 260.215H168.298C168.261 259.968 168.15 259.773 167.963 259.63C167.776 259.483 167.525 259.41 167.208 259.41C166.878 259.41 166.61 259.477 166.403 259.61C166.196 259.74 166.093 259.943 166.093 260.22C166.093 260.403 166.166 260.548 166.313 260.655C166.46 260.758 166.676 260.845 166.963 260.915L167.998 261.175C168.315 261.258 168.561 261.377 168.738 261.53C168.915 261.683 169.038 261.852 169.108 262.035C169.178 262.218 169.213 262.395 169.213 262.565C169.213 263.042 169.038 263.417 168.688 263.69C168.338 263.963 167.85 264.1 167.223 264.1ZM175.326 264.1C174.923 264.1 174.601 264.032 174.361 263.895C174.121 263.758 173.941 263.598 173.821 263.415C173.701 263.232 173.619 263.073 173.576 262.94L173.476 264H172.771V256.57H173.701V259.65C173.758 259.537 173.856 259.408 173.996 259.265C174.136 259.122 174.321 258.997 174.551 258.89C174.784 258.783 175.066 258.73 175.396 258.73C176.043 258.73 176.556 258.955 176.936 259.405C177.319 259.855 177.511 260.518 177.511 261.395C177.511 262.208 177.328 262.863 176.961 263.36C176.598 263.853 176.053 264.1 175.326 264.1ZM175.161 263.39C175.578 263.39 175.918 263.228 176.181 262.905C176.448 262.578 176.581 262.06 176.581 261.35C176.581 260.747 176.458 260.28 176.211 259.95C175.968 259.617 175.611 259.45 175.141 259.45C174.628 259.45 174.261 259.617 174.041 259.95C173.821 260.28 173.708 260.747 173.701 261.35C173.701 262.073 173.813 262.595 174.036 262.915C174.263 263.232 174.638 263.39 175.161 263.39ZM179.378 261.63C179.378 261.957 179.431 262.253 179.538 262.52C179.648 262.783 179.813 262.993 180.033 263.15C180.256 263.307 180.535 263.385 180.868 263.385C181.198 263.385 181.481 263.308 181.718 263.155C181.958 263.002 182.111 262.78 182.178 262.49H183.053C182.99 262.84 182.85 263.135 182.633 263.375C182.416 263.615 182.155 263.797 181.848 263.92C181.541 264.04 181.221 264.1 180.888 264.1C180.405 264.1 179.98 263.995 179.613 263.785C179.246 263.575 178.96 263.273 178.753 262.88C178.546 262.487 178.443 262.015 178.443 261.465C178.443 260.922 178.536 260.445 178.723 260.035C178.91 259.625 179.18 259.305 179.533 259.075C179.89 258.845 180.318 258.73 180.818 258.73C181.548 258.73 182.108 258.962 182.498 259.425C182.888 259.885 183.083 260.507 183.083 261.29V261.63H179.378ZM179.383 261.005H182.193C182.193 260.562 182.08 260.188 181.853 259.885C181.626 259.582 181.28 259.43 180.813 259.43C180.49 259.43 180.221 259.508 180.008 259.665C179.795 259.818 179.636 260.017 179.533 260.26C179.43 260.5 179.38 260.748 179.383 261.005ZM185.013 261.63C185.013 261.957 185.066 262.253 185.173 262.52C185.283 262.783 185.448 262.993 185.668 263.15C185.891 263.307 186.17 263.385 186.503 263.385C186.833 263.385 187.116 263.308 187.353 263.155C187.593 263.002 187.746 262.78 187.813 262.49H188.688C188.625 262.84 188.485 263.135 188.268 263.375C188.051 263.615 187.79 263.797 187.483 263.92C187.176 264.04 186.856 264.1 186.523 264.1C186.04 264.1 185.615 263.995 185.248 263.785C184.881 263.575 184.595 263.273 184.388 262.88C184.181 262.487 184.078 262.015 184.078 261.465C184.078 260.922 184.171 260.445 184.358 260.035C184.545 259.625 184.815 259.305 185.168 259.075C185.525 258.845 185.953 258.73 186.453 258.73C187.183 258.73 187.743 258.962 188.133 259.425C188.523 259.885 188.718 260.507 188.718 261.29V261.63H185.013ZM185.018 261.005H187.828C187.828 260.562 187.715 260.188 187.488 259.885C187.261 259.582 186.915 259.43 186.448 259.43C186.125 259.43 185.856 259.508 185.643 259.665C185.43 259.818 185.271 260.017 185.168 260.26C185.065 260.5 185.015 260.748 185.018 261.005ZM189.988 264V258.83H190.883V259.58C191.009 259.363 191.208 259.172 191.478 259.005C191.748 258.838 192.089 258.755 192.503 258.755C192.829 258.755 193.129 258.82 193.403 258.95C193.679 259.08 193.899 259.283 194.063 259.56C194.229 259.833 194.313 260.187 194.313 260.62V264H193.388V260.71C193.388 260.307 193.281 260.008 193.068 259.815C192.858 259.618 192.584 259.52 192.248 259.52C192.014 259.52 191.796 259.558 191.593 259.635C191.389 259.708 191.224 259.822 191.098 259.975C190.971 260.125 190.908 260.315 190.908 260.545V264H189.988ZM198.064 265.61V258.83H198.984L198.994 259.73C199.074 259.59 199.185 259.443 199.329 259.29C199.475 259.133 199.66 259.002 199.884 258.895C200.107 258.785 200.377 258.73 200.694 258.73C201.31 258.73 201.814 258.943 202.204 259.37C202.594 259.797 202.789 260.455 202.789 261.345C202.789 262.232 202.597 262.913 202.214 263.39C201.83 263.863 201.299 264.1 200.619 264.1C200.312 264.1 200.05 264.045 199.834 263.935C199.62 263.822 199.445 263.685 199.309 263.525C199.172 263.365 199.067 263.212 198.994 263.065V265.61H198.064ZM200.444 263.38C200.87 263.38 201.219 263.218 201.489 262.895C201.759 262.568 201.894 262.062 201.894 261.375C201.894 260.788 201.77 260.322 201.524 259.975C201.277 259.625 200.917 259.45 200.444 259.45C199.964 259.45 199.6 259.628 199.354 259.985C199.107 260.342 198.984 260.805 198.984 261.375C198.984 261.745 199.039 262.082 199.149 262.385C199.259 262.688 199.422 262.93 199.639 263.11C199.855 263.29 200.124 263.38 200.444 263.38ZM204.001 264V258.83H204.881V259.825C205.011 259.455 205.216 259.18 205.496 259C205.78 258.82 206.085 258.73 206.411 258.73C206.488 258.73 206.561 258.735 206.631 258.745C206.705 258.755 206.763 258.772 206.806 258.795V259.69C206.756 259.667 206.691 259.652 206.611 259.645C206.535 259.635 206.47 259.63 206.416 259.63C206.006 259.603 205.655 259.682 205.361 259.865C205.068 260.048 204.921 260.355 204.921 260.785V264H204.001ZM209.816 264.1C209.099 264.1 208.524 263.872 208.091 263.415C207.658 262.958 207.441 262.298 207.441 261.435C207.441 260.895 207.533 260.422 207.716 260.015C207.899 259.608 208.168 259.293 208.521 259.07C208.874 258.843 209.306 258.73 209.816 258.73C210.529 258.73 211.099 258.963 211.526 259.43C211.953 259.897 212.166 260.565 212.166 261.435C212.166 261.962 212.076 262.425 211.896 262.825C211.719 263.225 211.456 263.538 211.106 263.765C210.759 263.988 210.329 264.1 209.816 264.1ZM209.816 263.37C210.279 263.37 210.634 263.197 210.881 262.85C211.128 262.5 211.251 262.022 211.251 261.415C211.251 261.045 211.201 260.713 211.101 260.42C211.004 260.123 210.851 259.888 210.641 259.715C210.431 259.542 210.156 259.455 209.816 259.455C209.346 259.455 208.986 259.628 208.736 259.975C208.486 260.318 208.361 260.798 208.361 261.415C208.361 261.778 208.411 262.108 208.511 262.405C208.611 262.702 208.768 262.937 208.981 263.11C209.194 263.283 209.473 263.37 209.816 263.37ZM215.436 258.73C215.993 258.73 216.461 258.888 216.841 259.205C217.221 259.518 217.446 259.938 217.516 260.465H216.696C216.65 260.195 216.518 259.963 216.301 259.77C216.085 259.573 215.798 259.475 215.441 259.475C215.001 259.475 214.641 259.635 214.361 259.955C214.085 260.275 213.946 260.765 213.946 261.425C213.946 262.022 214.073 262.5 214.326 262.86C214.583 263.217 214.96 263.395 215.456 263.395C215.81 263.395 216.095 263.295 216.311 263.095C216.528 262.895 216.658 262.665 216.701 262.405H217.506C217.44 262.925 217.215 263.338 216.831 263.645C216.451 263.948 215.986 264.1 215.436 264.1C214.97 264.1 214.558 263.998 214.201 263.795C213.845 263.592 213.565 263.292 213.361 262.895C213.158 262.498 213.056 262.012 213.056 261.435C213.056 260.898 213.148 260.427 213.331 260.02C213.518 259.613 213.788 259.297 214.141 259.07C214.498 258.843 214.93 258.73 215.436 258.73ZM219.427 261.63C219.427 261.957 219.48 262.253 219.587 262.52C219.697 262.783 219.862 262.993 220.082 263.15C220.305 263.307 220.584 263.385 220.917 263.385C221.247 263.385 221.53 263.308 221.767 263.155C222.007 263.002 222.16 262.78 222.227 262.49H223.102C223.039 262.84 222.899 263.135 222.682 263.375C222.465 263.615 222.204 263.797 221.897 263.92C221.59 264.04 221.27 264.1 220.937 264.1C220.454 264.1 220.029 263.995 219.662 263.785C219.295 263.575 219.009 263.273 218.802 262.88C218.595 262.487 218.492 262.015 218.492 261.465C218.492 260.922 218.585 260.445 218.772 260.035C218.959 259.625 219.229 259.305 219.582 259.075C219.939 258.845 220.367 258.73 220.867 258.73C221.597 258.73 222.157 258.962 222.547 259.425C222.937 259.885 223.132 260.507 223.132 261.29V261.63H219.427ZM219.432 261.005H222.242C222.242 260.562 222.129 260.188 221.902 259.885C221.675 259.582 221.329 259.43 220.862 259.43C220.539 259.43 220.27 259.508 220.057 259.665C219.844 259.818 219.685 260.017 219.582 260.26C219.479 260.5 219.429 260.748 219.432 261.005ZM226.198 264.1C225.834 264.1 225.499 264.043 225.193 263.93C224.886 263.817 224.629 263.643 224.423 263.41C224.219 263.173 224.093 262.868 224.043 262.495H224.883C224.949 262.798 225.101 263.027 225.338 263.18C225.578 263.333 225.863 263.41 226.193 263.41C226.539 263.41 226.819 263.345 227.033 263.215C227.246 263.085 227.353 262.885 227.353 262.615C227.353 262.252 227.124 262.015 226.668 261.905L225.598 261.64C225.178 261.54 224.843 261.383 224.593 261.17C224.346 260.957 224.223 260.658 224.223 260.275C224.219 259.822 224.383 259.452 224.713 259.165C225.043 258.875 225.536 258.73 226.193 258.73C226.753 258.73 227.204 258.857 227.548 259.11C227.894 259.363 228.074 259.732 228.088 260.215H227.273C227.236 259.968 227.124 259.773 226.938 259.63C226.751 259.483 226.499 259.41 226.183 259.41C225.853 259.41 225.584 259.477 225.378 259.61C225.171 259.74 225.068 259.943 225.068 260.22C225.068 260.403 225.141 260.548 225.288 260.655C225.434 260.758 225.651 260.845 225.938 260.915L226.973 261.175C227.289 261.258 227.536 261.377 227.713 261.53C227.889 261.683 228.013 261.852 228.083 262.035C228.153 262.218 228.188 262.395 228.188 262.565C228.188 263.042 228.013 263.417 227.663 263.69C227.313 263.963 226.824 264.1 226.198 264.1ZM231.227 264.1C230.864 264.1 230.529 264.043 230.222 263.93C229.915 263.817 229.659 263.643 229.452 263.41C229.249 263.173 229.122 262.868 229.072 262.495H229.912C229.979 262.798 230.13 263.027 230.367 263.18C230.607 263.333 230.892 263.41 231.222 263.41C231.569 263.41 231.849 263.345 232.062 263.215C232.275 263.085 232.382 262.885 232.382 262.615C232.382 262.252 232.154 262.015 231.697 261.905L230.627 261.64C230.207 261.54 229.872 261.383 229.622 261.17C229.375 260.957 229.252 260.658 229.252 260.275C229.249 259.822 229.412 259.452 229.742 259.165C230.072 258.875 230.565 258.73 231.222 258.73C231.782 258.73 232.234 258.857 232.577 259.11C232.924 259.363 233.104 259.732 233.117 260.215H232.302C232.265 259.968 232.154 259.773 231.967 259.63C231.78 259.483 231.529 259.41 231.212 259.41C230.882 259.41 230.614 259.477 230.407 259.61C230.2 259.74 230.097 259.943 230.097 260.22C230.097 260.403 230.17 260.548 230.317 260.655C230.464 260.758 230.68 260.845 230.967 260.915L232.002 261.175C232.319 261.258 232.565 261.377 232.742 261.53C232.919 261.683 233.042 261.852 233.112 262.035C233.182 262.218 233.217 262.395 233.217 262.565C233.217 263.042 233.042 263.417 232.692 263.69C232.342 263.963 231.854 264.1 231.227 264.1ZM235.169 261.63C235.169 261.957 235.222 262.253 235.329 262.52C235.439 262.783 235.604 262.993 235.824 263.15C236.047 263.307 236.326 263.385 236.659 263.385C236.989 263.385 237.272 263.308 237.509 263.155C237.749 263.002 237.902 262.78 237.969 262.49H238.844C238.781 262.84 238.641 263.135 238.424 263.375C238.207 263.615 237.946 263.797 237.639 263.92C237.332 264.04 237.012 264.1 236.679 264.1C236.196 264.1 235.771 263.995 235.404 263.785C235.037 263.575 234.751 263.273 234.544 262.88C234.337 262.487 234.234 262.015 234.234 261.465C234.234 260.922 234.327 260.445 234.514 260.035C234.701 259.625 234.971 259.305 235.324 259.075C235.681 258.845 236.109 258.73 236.609 258.73C237.339 258.73 237.899 258.962 238.289 259.425C238.679 259.885 238.874 260.507 238.874 261.29V261.63H235.169ZM235.174 261.005H237.984C237.984 260.562 237.871 260.188 237.644 259.885C237.417 259.582 237.071 259.43 236.604 259.43C236.281 259.43 236.012 259.508 235.799 259.665C235.586 259.818 235.427 260.017 235.324 260.26C235.221 260.5 235.171 260.748 235.174 261.005ZM242.009 264.1C241.336 264.1 240.802 263.87 240.409 263.41C240.019 262.95 239.824 262.278 239.824 261.395C239.824 260.588 240.001 259.943 240.354 259.46C240.711 258.973 241.239 258.73 241.939 258.73C242.266 258.73 242.544 258.783 242.774 258.89C243.007 258.997 243.194 259.122 243.334 259.265C243.477 259.408 243.577 259.537 243.634 259.65V256.57H244.564V264H243.859L243.759 262.94C243.716 263.073 243.634 263.232 243.514 263.415C243.394 263.598 243.214 263.758 242.974 263.895C242.734 264.032 242.412 264.1 242.009 264.1ZM242.174 263.39C242.697 263.39 243.071 263.232 243.294 262.915C243.521 262.595 243.634 262.073 243.634 261.35C243.627 260.747 243.514 260.28 243.294 259.95C243.074 259.617 242.707 259.45 242.194 259.45C241.771 259.45 241.424 259.602 241.154 259.905C240.887 260.205 240.754 260.687 240.754 261.35C240.754 261.997 240.874 262.498 241.114 262.855C241.357 263.212 241.711 263.39 242.174 263.39ZM245.876 264V262.82H246.976V264H245.876ZM250.048 257.62V256.77H255.518V257.62H253.313V264H252.383V257.62H250.048ZM256.521 264V256.57H257.421V259.59C257.551 259.377 257.749 259.187 258.016 259.02C258.283 258.85 258.623 258.765 259.036 258.765C259.373 258.765 259.678 258.828 259.951 258.955C260.224 259.078 260.441 259.255 260.601 259.485C260.761 259.715 260.841 259.988 260.841 260.305V264H259.916V260.49C259.916 260.18 259.809 259.942 259.596 259.775C259.386 259.605 259.111 259.52 258.771 259.52C258.538 259.52 258.319 259.558 258.116 259.635C257.916 259.708 257.753 259.822 257.626 259.975C257.503 260.125 257.441 260.317 257.441 260.55V264H256.521ZM262.943 261.63C262.943 261.957 262.996 262.253 263.103 262.52C263.213 262.783 263.378 262.993 263.598 263.15C263.821 263.307 264.099 263.385 264.433 263.385C264.763 263.385 265.046 263.308 265.283 263.155C265.523 263.002 265.676 262.78 265.743 262.49H266.618C266.554 262.84 266.414 263.135 266.198 263.375C265.981 263.615 265.719 263.797 265.413 263.92C265.106 264.04 264.786 264.1 264.453 264.1C263.969 264.1 263.544 263.995 263.178 263.785C262.811 263.575 262.524 263.273 262.318 262.88C262.111 262.487 262.008 262.015 262.008 261.465C262.008 260.922 262.101 260.445 262.288 260.035C262.474 259.625 262.744 259.305 263.098 259.075C263.454 258.845 263.883 258.73 264.383 258.73C265.113 258.73 265.673 258.962 266.063 259.425C266.453 259.885 266.648 260.507 266.648 261.29V261.63H262.943ZM262.948 261.005H265.758C265.758 260.562 265.644 260.188 265.418 259.885C265.191 259.582 264.844 259.43 264.378 259.43C264.054 259.43 263.786 259.508 263.573 259.665C263.359 259.818 263.201 260.017 263.098 260.26C262.994 260.5 262.944 260.748 262.948 261.005ZM94.46 273.505H93.295V276.72C93.295 276.997 93.3383 277.167 93.425 277.23C93.515 277.29 93.6817 277.32 93.925 277.32H94.49V277.94C94.4233 277.963 94.3267 277.983 94.2 278C94.0733 278.017 93.915 278.025 93.725 278.025C93.1883 278.025 92.8267 277.917 92.64 277.7C92.4567 277.483 92.365 277.167 92.365 276.75V273.505H91.525V272.83H92.39L92.615 271.325H93.295V272.825H94.46V273.505ZM97.7067 278.1C96.9901 278.1 96.4151 277.872 95.9817 277.415C95.5484 276.958 95.3317 276.298 95.3317 275.435C95.3317 274.895 95.4234 274.422 95.6067 274.015C95.7901 273.608 96.0584 273.293 96.4117 273.07C96.7651 272.843 97.1967 272.73 97.7067 272.73C98.4201 272.73 98.9901 272.963 99.4167 273.43C99.8434 273.897 100.057 274.565 100.057 275.435C100.057 275.962 99.9667 276.425 99.7867 276.825C99.6101 277.225 99.3467 277.538 98.9967 277.765C98.6501 277.988 98.2201 278.1 97.7067 278.1ZM97.7067 277.37C98.1701 277.37 98.5251 277.197 98.7717 276.85C99.0184 276.5 99.1417 276.022 99.1417 275.415C99.1417 275.045 99.0917 274.713 98.9917 274.42C98.8951 274.123 98.7417 273.888 98.5317 273.715C98.3217 273.542 98.0467 273.455 97.7067 273.455C97.2367 273.455 96.8767 273.628 96.6267 273.975C96.3767 274.318 96.2517 274.798 96.2517 275.415C96.2517 275.778 96.3017 276.108 96.4017 276.405C96.5017 276.702 96.6584 276.937 96.8717 277.11C97.0851 277.283 97.3634 277.37 97.7067 277.37ZM103.728 273.505H102.563V276.72C102.563 276.997 102.606 277.167 102.693 277.23C102.783 277.29 102.949 277.32 103.193 277.32H103.758V277.94C103.691 277.963 103.594 277.983 103.468 278C103.341 278.017 103.183 278.025 102.993 278.025C102.456 278.025 102.094 277.917 101.908 277.7C101.724 277.483 101.633 277.167 101.633 276.75V273.505H100.793V272.83H101.658L101.883 271.325H102.563V272.825H103.728V273.505ZM106.447 278.1C105.944 278.1 105.534 277.968 105.217 277.705C104.9 277.442 104.742 277.073 104.742 276.6C104.742 276.027 104.942 275.6 105.342 275.32C105.742 275.04 106.384 274.89 107.267 274.87L108.192 274.845V274.44C108.192 274.123 108.095 273.873 107.902 273.69C107.712 273.503 107.419 273.41 107.022 273.41C106.725 273.413 106.464 273.485 106.237 273.625C106.01 273.762 105.865 273.983 105.802 274.29H104.987C105.014 273.787 105.21 273.402 105.577 273.135C105.944 272.865 106.44 272.73 107.067 272.73C107.74 272.73 108.244 272.872 108.577 273.155C108.914 273.438 109.082 273.85 109.082 274.39V278H108.292L108.227 277.03C108.024 277.433 107.769 277.713 107.462 277.87C107.155 278.023 106.817 278.1 106.447 278.1ZM106.727 277.435C106.957 277.435 107.184 277.38 107.407 277.27C107.634 277.16 107.82 277.02 107.967 276.85C108.114 276.677 108.189 276.493 108.192 276.3V275.415L107.422 275.43C106.829 275.44 106.384 275.528 106.087 275.695C105.79 275.858 105.642 276.13 105.642 276.51C105.642 276.803 105.742 277.032 105.942 277.195C106.145 277.355 106.407 277.435 106.727 277.435ZM111.966 278.065C111.593 278.065 111.313 278 111.126 277.87C110.94 277.737 110.815 277.565 110.751 277.355C110.691 277.142 110.661 276.913 110.661 276.67V270.57H111.571V276.58C111.571 276.843 111.621 277.04 111.721 277.17C111.825 277.297 111.968 277.367 112.151 277.38L112.431 277.385V277.985C112.265 278.038 112.11 278.065 111.966 278.065ZM117.375 278.1C116.871 278.1 116.461 277.968 116.145 277.705C115.828 277.442 115.67 277.073 115.67 276.6C115.67 276.027 115.87 275.6 116.27 275.32C116.67 275.04 117.311 274.89 118.195 274.87L119.12 274.845V274.44C119.12 274.123 119.023 273.873 118.83 273.69C118.64 273.503 118.346 273.41 117.95 273.41C117.653 273.413 117.391 273.485 117.165 273.625C116.938 273.762 116.793 273.983 116.73 274.29H115.915C115.941 273.787 116.138 273.402 116.505 273.135C116.871 272.865 117.368 272.73 117.995 272.73C118.668 272.73 119.171 272.872 119.505 273.155C119.841 273.438 120.01 273.85 120.01 274.39V278H119.22L119.155 277.03C118.951 277.433 118.696 277.713 118.39 277.87C118.083 278.023 117.745 278.1 117.375 278.1ZM117.655 277.435C117.885 277.435 118.111 277.38 118.335 277.27C118.561 277.16 118.748 277.02 118.895 276.85C119.041 276.677 119.116 276.493 119.12 276.3V275.415L118.35 275.43C117.756 275.44 117.311 275.528 117.015 275.695C116.718 275.858 116.57 276.13 116.57 276.51C116.57 276.803 116.67 277.032 116.87 277.195C117.073 277.355 117.335 277.435 117.655 277.435ZM121.589 278V272.83H122.479V273.58C122.623 273.35 122.818 273.152 123.064 272.985C123.314 272.815 123.641 272.73 124.044 272.73C124.328 272.73 124.613 272.802 124.899 272.945C125.186 273.088 125.398 273.298 125.534 273.575C125.694 273.322 125.911 273.118 126.184 272.965C126.458 272.808 126.766 272.73 127.109 272.73C127.289 272.73 127.478 272.758 127.674 272.815C127.871 272.868 128.054 272.965 128.224 273.105C128.394 273.242 128.531 273.433 128.634 273.68C128.741 273.923 128.794 274.237 128.794 274.62V278H127.864V274.71C127.864 274.397 127.814 274.153 127.714 273.98C127.614 273.807 127.483 273.687 127.319 273.62C127.159 273.55 126.988 273.515 126.804 273.515C126.644 273.515 126.474 273.547 126.294 273.61C126.114 273.673 125.961 273.78 125.834 273.93C125.708 274.08 125.644 274.285 125.644 274.545V278H124.724V274.44C124.724 274.237 124.669 274.067 124.559 273.93C124.453 273.79 124.318 273.687 124.154 273.62C123.994 273.55 123.834 273.515 123.674 273.515C123.498 273.515 123.319 273.552 123.139 273.625C122.963 273.695 122.813 273.805 122.689 273.955C122.569 274.105 122.509 274.302 122.509 274.545V278H121.589ZM132.297 278.1C131.58 278.1 131.005 277.872 130.572 277.415C130.138 276.958 129.922 276.298 129.922 275.435C129.922 274.895 130.013 274.422 130.197 274.015C130.38 273.608 130.648 273.293 131.002 273.07C131.355 272.843 131.787 272.73 132.297 272.73C133.01 272.73 133.58 272.963 134.007 273.43C134.433 273.897 134.647 274.565 134.647 275.435C134.647 275.962 134.557 276.425 134.377 276.825C134.2 277.225 133.937 277.538 133.587 277.765C133.24 277.988 132.81 278.1 132.297 278.1ZM132.297 277.37C132.76 277.37 133.115 277.197 133.362 276.85C133.608 276.5 133.732 276.022 133.732 275.415C133.732 275.045 133.682 274.713 133.582 274.42C133.485 274.123 133.332 273.888 133.122 273.715C132.912 273.542 132.637 273.455 132.297 273.455C131.827 273.455 131.467 273.628 131.217 273.975C130.967 274.318 130.842 274.798 130.842 275.415C130.842 275.778 130.892 276.108 130.992 276.405C131.092 276.702 131.248 276.937 131.462 277.11C131.675 277.283 131.953 277.37 132.297 277.37ZM137.669 278.1C137.309 278.097 136.979 278.03 136.679 277.9C136.379 277.767 136.137 277.57 135.954 277.31C135.774 277.05 135.684 276.727 135.684 276.34V272.83H136.609V276.245C136.609 276.582 136.712 276.855 136.919 277.065C137.129 277.275 137.444 277.38 137.864 277.38C138.244 277.38 138.549 277.282 138.779 277.085C139.012 276.885 139.129 276.588 139.129 276.195V272.83H140.049V278H139.314L139.219 277.01C139.126 277.4 138.936 277.68 138.649 277.85C138.362 278.02 138.036 278.103 137.669 278.1ZM141.56 278V272.83H142.455V273.58C142.582 273.363 142.78 273.172 143.05 273.005C143.32 272.838 143.662 272.755 144.075 272.755C144.402 272.755 144.702 272.82 144.975 272.95C145.252 273.08 145.472 273.283 145.635 273.56C145.802 273.833 145.885 274.187 145.885 274.62V278H144.96V274.71C144.96 274.307 144.853 274.008 144.64 273.815C144.43 273.618 144.157 273.52 143.82 273.52C143.587 273.52 143.368 273.558 143.165 273.635C142.962 273.708 142.797 273.822 142.67 273.975C142.543 274.125 142.48 274.315 142.48 274.545V278H141.56ZM149.714 273.505H148.549V276.72C148.549 276.997 148.592 277.167 148.679 277.23C148.769 277.29 148.936 277.32 149.179 277.32H149.744V277.94C149.677 277.963 149.581 277.983 149.454 278C149.327 278.017 149.169 278.025 148.979 278.025C148.442 278.025 148.081 277.917 147.894 277.7C147.711 277.483 147.619 277.167 147.619 276.75V273.505H146.779V272.83H147.644L147.869 271.325H148.549V272.825H149.714V273.505ZM155.085 278.1C154.412 278.1 153.878 277.87 153.485 277.41C153.095 276.95 152.9 276.278 152.9 275.395C152.9 274.588 153.077 273.943 153.43 273.46C153.787 272.973 154.315 272.73 155.015 272.73C155.342 272.73 155.62 272.783 155.85 272.89C156.083 272.997 156.27 273.122 156.41 273.265C156.553 273.408 156.653 273.537 156.71 273.65V270.57H157.64V278H156.935L156.835 276.94C156.792 277.073 156.71 277.232 156.59 277.415C156.47 277.598 156.29 277.758 156.05 277.895C155.81 278.032 155.488 278.1 155.085 278.1ZM155.25 277.39C155.773 277.39 156.147 277.232 156.37 276.915C156.597 276.595 156.71 276.073 156.71 275.35C156.703 274.747 156.59 274.28 156.37 273.95C156.15 273.617 155.783 273.45 155.27 273.45C154.847 273.45 154.5 273.602 154.23 273.905C153.963 274.205 153.83 274.687 153.83 275.35C153.83 275.997 153.95 276.498 154.19 276.855C154.433 277.212 154.787 277.39 155.25 277.39ZM159.827 275.63C159.827 275.957 159.881 276.253 159.987 276.52C160.097 276.783 160.262 276.993 160.482 277.15C160.706 277.307 160.984 277.385 161.317 277.385C161.647 277.385 161.931 277.308 162.167 277.155C162.407 277.002 162.561 276.78 162.627 276.49H163.502C163.439 276.84 163.299 277.135 163.082 277.375C162.866 277.615 162.604 277.797 162.297 277.92C161.991 278.04 161.671 278.1 161.337 278.1C160.854 278.1 160.429 277.995 160.062 277.785C159.696 277.575 159.409 277.273 159.202 276.88C158.996 276.487 158.892 276.015 158.892 275.465C158.892 274.922 158.986 274.445 159.172 274.035C159.359 273.625 159.629 273.305 159.982 273.075C160.339 272.845 160.767 272.73 161.267 272.73C161.997 272.73 162.557 272.962 162.947 273.425C163.337 273.885 163.532 274.507 163.532 275.29V275.63H159.827ZM159.832 275.005H162.642C162.642 274.562 162.529 274.188 162.302 273.885C162.076 273.582 161.729 273.43 161.262 273.43C160.939 273.43 160.671 273.508 160.457 273.665C160.244 273.818 160.086 274.017 159.982 274.26C159.879 274.5 159.829 274.748 159.832 275.005ZM166.667 278.1C165.994 278.1 165.46 277.87 165.067 277.41C164.677 276.95 164.482 276.278 164.482 275.395C164.482 274.588 164.659 273.943 165.012 273.46C165.369 272.973 165.897 272.73 166.597 272.73C166.924 272.73 167.202 272.783 167.432 272.89C167.665 272.997 167.852 273.122 167.992 273.265C168.135 273.408 168.235 273.537 168.292 273.65V270.57H169.222V278H168.517L168.417 276.94C168.374 277.073 168.292 277.232 168.172 277.415C168.052 277.598 167.872 277.758 167.632 277.895C167.392 278.032 167.07 278.1 166.667 278.1ZM166.832 277.39C167.355 277.39 167.729 277.232 167.952 276.915C168.179 276.595 168.292 276.073 168.292 275.35C168.285 274.747 168.172 274.28 167.952 273.95C167.732 273.617 167.365 273.45 166.852 273.45C166.429 273.45 166.082 273.602 165.812 273.905C165.545 274.205 165.412 274.687 165.412 275.35C165.412 275.997 165.532 276.498 165.772 276.855C166.015 277.212 166.369 277.39 166.832 277.39ZM172.649 278.1C172.289 278.097 171.959 278.03 171.659 277.9C171.359 277.767 171.118 277.57 170.934 277.31C170.754 277.05 170.664 276.727 170.664 276.34V272.83H171.589V276.245C171.589 276.582 171.693 276.855 171.899 277.065C172.109 277.275 172.424 277.38 172.844 277.38C173.224 277.38 173.529 277.282 173.759 277.085C173.993 276.885 174.109 276.588 174.109 276.195V272.83H175.029V278H174.294L174.199 277.01C174.106 277.4 173.916 277.68 173.629 277.85C173.343 278.02 173.016 278.103 172.649 278.1ZM178.532 272.73C179.089 272.73 179.557 272.888 179.937 273.205C180.317 273.518 180.542 273.938 180.612 274.465H179.792C179.745 274.195 179.614 273.963 179.397 273.77C179.18 273.573 178.894 273.475 178.537 273.475C178.097 273.475 177.737 273.635 177.457 273.955C177.18 274.275 177.042 274.765 177.042 275.425C177.042 276.022 177.169 276.5 177.422 276.86C177.679 277.217 178.055 277.395 178.552 277.395C178.905 277.395 179.19 277.295 179.407 277.095C179.624 276.895 179.754 276.665 179.797 276.405H180.602C180.535 276.925 180.31 277.338 179.927 277.645C179.547 277.948 179.082 278.1 178.532 278.1C178.065 278.1 177.654 277.998 177.297 277.795C176.94 277.592 176.66 277.292 176.457 276.895C176.254 276.498 176.152 276.012 176.152 275.435C176.152 274.898 176.244 274.427 176.427 274.02C176.614 273.613 176.884 273.297 177.237 273.07C177.594 272.843 178.025 272.73 178.532 272.73ZM184.323 273.505H183.158V276.72C183.158 276.997 183.202 277.167 183.288 277.23C183.378 277.29 183.545 277.32 183.788 277.32H184.353V277.94C184.287 277.963 184.19 277.983 184.063 278C183.937 278.017 183.778 278.025 183.588 278.025C183.052 278.025 182.69 277.917 182.503 277.7C182.32 277.483 182.228 277.167 182.228 276.75V273.505H181.388V272.83H182.253L182.478 271.325H183.158V272.825H184.323V273.505ZM186.175 275.63C186.175 275.957 186.228 276.253 186.335 276.52C186.445 276.783 186.61 276.993 186.83 277.15C187.053 277.307 187.332 277.385 187.665 277.385C187.995 277.385 188.278 277.308 188.515 277.155C188.755 277.002 188.908 276.78 188.975 276.49H189.85C189.787 276.84 189.647 277.135 189.43 277.375C189.213 277.615 188.952 277.797 188.645 277.92C188.338 278.04 188.018 278.1 187.685 278.1C187.202 278.1 186.777 277.995 186.41 277.785C186.043 277.575 185.757 277.273 185.55 276.88C185.343 276.487 185.24 276.015 185.24 275.465C185.24 274.922 185.333 274.445 185.52 274.035C185.707 273.625 185.977 273.305 186.33 273.075C186.687 272.845 187.115 272.73 187.615 272.73C188.345 272.73 188.905 272.962 189.295 273.425C189.685 273.885 189.88 274.507 189.88 275.29V275.63H186.175ZM186.18 275.005H188.99C188.99 274.562 188.877 274.188 188.65 273.885C188.423 273.582 188.077 273.43 187.61 273.43C187.287 273.43 187.018 273.508 186.805 273.665C186.592 273.818 186.433 274.017 186.33 274.26C186.227 274.5 186.177 274.748 186.18 275.005ZM193.015 278.1C192.341 278.1 191.808 277.87 191.415 277.41C191.025 276.95 190.83 276.278 190.83 275.395C190.83 274.588 191.006 273.943 191.36 273.46C191.716 272.973 192.245 272.73 192.945 272.73C193.271 272.73 193.55 272.783 193.78 272.89C194.013 272.997 194.2 273.122 194.34 273.265C194.483 273.408 194.583 273.537 194.64 273.65V270.57H195.57V278H194.865L194.765 276.94C194.721 277.073 194.64 277.232 194.52 277.415C194.4 277.598 194.22 277.758 193.98 277.895C193.74 278.032 193.418 278.1 193.015 278.1ZM193.18 277.39C193.703 277.39 194.076 277.232 194.3 276.915C194.526 276.595 194.64 276.073 194.64 275.35C194.633 274.747 194.52 274.28 194.3 273.95C194.08 273.617 193.713 273.45 193.2 273.45C192.776 273.45 192.43 273.602 192.16 273.905C191.893 274.205 191.76 274.687 191.76 275.35C191.76 275.997 191.88 276.498 192.12 276.855C192.363 277.212 192.716 277.39 193.18 277.39ZM202.322 272.83V273.505H201.067V278H200.137V273.505H199.047V272.83H200.137V272.03C200.137 271.19 200.555 270.77 201.392 270.77H202.367L202.372 271.425H201.597C201.387 271.425 201.243 271.482 201.167 271.595C201.09 271.708 201.052 271.88 201.052 272.11V272.83H202.322ZM203.464 278V272.83H204.344V273.825C204.474 273.455 204.679 273.18 204.959 273C205.243 272.82 205.548 272.73 205.874 272.73C205.951 272.73 206.024 272.735 206.094 272.745C206.168 272.755 206.226 272.772 206.269 272.795V273.69C206.219 273.667 206.154 273.652 206.074 273.645C205.998 273.635 205.933 273.63 205.879 273.63C205.469 273.603 205.118 273.682 204.824 273.865C204.531 274.048 204.384 274.355 204.384 274.785V278H203.464ZM209.279 278.1C208.562 278.1 207.987 277.872 207.554 277.415C207.121 276.958 206.904 276.298 206.904 275.435C206.904 274.895 206.996 274.422 207.179 274.015C207.362 273.608 207.631 273.293 207.984 273.07C208.337 272.843 208.769 272.73 209.279 272.73C209.992 272.73 210.562 272.963 210.989 273.43C211.416 273.897 211.629 274.565 211.629 275.435C211.629 275.962 211.539 276.425 211.359 276.825C211.182 277.225 210.919 277.538 210.569 277.765C210.222 277.988 209.792 278.1 209.279 278.1ZM209.279 277.37C209.742 277.37 210.097 277.197 210.344 276.85C210.591 276.5 210.714 276.022 210.714 275.415C210.714 275.045 210.664 274.713 210.564 274.42C210.467 274.123 210.314 273.888 210.104 273.715C209.894 273.542 209.619 273.455 209.279 273.455C208.809 273.455 208.449 273.628 208.199 273.975C207.949 274.318 207.824 274.798 207.824 275.415C207.824 275.778 207.874 276.108 207.974 276.405C208.074 276.702 208.231 276.937 208.444 277.11C208.657 277.283 208.936 277.37 209.279 277.37ZM212.839 278V272.83H213.729V273.58C213.873 273.35 214.068 273.152 214.314 272.985C214.564 272.815 214.891 272.73 215.294 272.73C215.578 272.73 215.863 272.802 216.149 272.945C216.436 273.088 216.648 273.298 216.784 273.575C216.944 273.322 217.161 273.118 217.434 272.965C217.708 272.808 218.016 272.73 218.359 272.73C218.539 272.73 218.728 272.758 218.924 272.815C219.121 272.868 219.304 272.965 219.474 273.105C219.644 273.242 219.781 273.433 219.884 273.68C219.991 273.923 220.044 274.237 220.044 274.62V278H219.114V274.71C219.114 274.397 219.064 274.153 218.964 273.98C218.864 273.807 218.733 273.687 218.569 273.62C218.409 273.55 218.238 273.515 218.054 273.515C217.894 273.515 217.724 273.547 217.544 273.61C217.364 273.673 217.211 273.78 217.084 273.93C216.958 274.08 216.894 274.285 216.894 274.545V278H215.974V274.44C215.974 274.237 215.919 274.067 215.809 273.93C215.703 273.79 215.568 273.687 215.404 273.62C215.244 273.55 215.084 273.515 214.924 273.515C214.748 273.515 214.569 273.552 214.389 273.625C214.213 273.695 214.063 273.805 213.939 273.955C213.819 274.105 213.759 274.302 213.759 274.545V278H212.839ZM224.238 279.65C223.935 279.65 223.726 279.628 223.613 279.585C223.5 279.542 223.443 279.52 223.443 279.52V278.92L223.968 278.93C224.225 278.94 224.423 278.915 224.563 278.855C224.706 278.795 224.811 278.72 224.878 278.63C224.945 278.54 224.996 278.452 225.033 278.365L225.213 277.875L223.193 272.83H224.128L225.653 276.82L227.168 272.83H228.073L225.893 278.39C225.693 278.883 225.456 279.217 225.183 279.39C224.91 279.563 224.595 279.65 224.238 279.65ZM230.929 278.1C230.213 278.1 229.638 277.872 229.204 277.415C228.771 276.958 228.554 276.298 228.554 275.435C228.554 274.895 228.646 274.422 228.829 274.015C229.013 273.608 229.281 273.293 229.634 273.07C229.988 272.843 230.419 272.73 230.929 272.73C231.643 272.73 232.213 272.963 232.639 273.43C233.066 273.897 233.279 274.565 233.279 275.435C233.279 275.962 233.189 276.425 233.009 276.825C232.833 277.225 232.569 277.538 232.219 277.765C231.873 277.988 231.443 278.1 230.929 278.1ZM230.929 277.37C231.393 277.37 231.748 277.197 231.994 276.85C232.241 276.5 232.364 276.022 232.364 275.415C232.364 275.045 232.314 274.713 232.214 274.42C232.118 274.123 231.964 273.888 231.754 273.715C231.544 273.542 231.269 273.455 230.929 273.455C230.459 273.455 230.099 273.628 229.849 273.975C229.599 274.318 229.474 274.798 229.474 275.415C229.474 275.778 229.524 276.108 229.624 276.405C229.724 276.702 229.881 276.937 230.094 277.11C230.308 277.283 230.586 277.37 230.929 277.37ZM236.302 278.1C235.942 278.097 235.612 278.03 235.312 277.9C235.012 277.767 234.77 277.57 234.587 277.31C234.407 277.05 234.317 276.727 234.317 276.34V272.83H235.242V276.245C235.242 276.582 235.345 276.855 235.552 277.065C235.762 277.275 236.077 277.38 236.497 277.38C236.877 277.38 237.182 277.282 237.412 277.085C237.645 276.885 237.762 276.588 237.762 276.195V272.83H238.682V278H237.947L237.852 277.01C237.758 277.4 237.568 277.68 237.282 277.85C236.995 278.02 236.668 278.103 236.302 278.1ZM240.193 278V272.83H241.073V273.825C241.203 273.455 241.408 273.18 241.688 273C241.971 272.82 242.276 272.73 242.603 272.73C242.679 272.73 242.753 272.735 242.823 272.745C242.896 272.755 242.954 272.772 242.998 272.795V273.69C242.948 273.667 242.883 273.652 242.803 273.645C242.726 273.635 242.661 273.63 242.608 273.63C242.198 273.603 241.846 273.682 241.553 273.865C241.259 274.048 241.113 274.355 241.113 274.785V278H240.193ZM93.195 292.1C92.6917 292.1 92.2817 291.968 91.965 291.705C91.6483 291.442 91.49 291.073 91.49 290.6C91.49 290.027 91.69 289.6 92.09 289.32C92.49 289.04 93.1317 288.89 94.015 288.87L94.94 288.845V288.44C94.94 288.123 94.8433 287.873 94.65 287.69C94.46 287.503 94.1667 287.41 93.77 287.41C93.4733 287.413 93.2117 287.485 92.985 287.625C92.7583 287.762 92.6133 287.983 92.55 288.29H91.735C91.7617 287.787 91.9583 287.402 92.325 287.135C92.6917 286.865 93.1883 286.73 93.815 286.73C94.4883 286.73 94.9917 286.872 95.325 287.155C95.6617 287.438 95.83 287.85 95.83 288.39V292H95.04L94.975 291.03C94.7717 291.433 94.5167 291.713 94.21 291.87C93.9033 292.023 93.565 292.1 93.195 292.1ZM93.475 291.435C93.705 291.435 93.9317 291.38 94.155 291.27C94.3817 291.16 94.5683 291.02 94.715 290.85C94.8617 290.677 94.9367 290.493 94.94 290.3V289.415L94.17 289.43C93.5767 289.44 93.1317 289.528 92.835 289.695C92.5383 289.858 92.39 290.13 92.39 290.51C92.39 290.803 92.49 291.032 92.69 291.195C92.8933 291.355 93.155 291.435 93.475 291.435ZM99.4695 286.73C100.026 286.73 100.495 286.888 100.875 287.205C101.255 287.518 101.48 287.938 101.55 288.465H100.73C100.683 288.195 100.551 287.963 100.335 287.77C100.118 287.573 99.8312 287.475 99.4745 287.475C99.0345 287.475 98.6745 287.635 98.3945 287.955C98.1179 288.275 97.9795 288.765 97.9795 289.425C97.9795 290.022 98.1062 290.5 98.3595 290.86C98.6162 291.217 98.9929 291.395 99.4895 291.395C99.8429 291.395 100.128 291.295 100.345 291.095C100.561 290.895 100.691 290.665 100.735 290.405H101.54C101.473 290.925 101.248 291.338 100.865 291.645C100.485 291.948 100.02 292.1 99.4695 292.1C99.0029 292.1 98.5912 291.998 98.2345 291.795C97.8779 291.592 97.5979 291.292 97.3945 290.895C97.1912 290.498 97.0895 290.012 97.0895 289.435C97.0895 288.898 97.1812 288.427 97.3645 288.02C97.5512 287.613 97.8212 287.297 98.1745 287.07C98.5312 286.843 98.9629 286.73 99.4695 286.73ZM104.86 286.73C105.417 286.73 105.885 286.888 106.265 287.205C106.645 287.518 106.87 287.938 106.94 288.465H106.12C106.073 288.195 105.942 287.963 105.725 287.77C105.508 287.573 105.222 287.475 104.865 287.475C104.425 287.475 104.065 287.635 103.785 287.955C103.508 288.275 103.37 288.765 103.37 289.425C103.37 290.022 103.497 290.5 103.75 290.86C104.007 291.217 104.383 291.395 104.88 291.395C105.233 291.395 105.518 291.295 105.735 291.095C105.952 290.895 106.082 290.665 106.125 290.405H106.93C106.863 290.925 106.638 291.338 106.255 291.645C105.875 291.948 105.41 292.1 104.86 292.1C104.393 292.1 103.982 291.998 103.625 291.795C103.268 291.592 102.988 291.292 102.785 290.895C102.582 290.498 102.48 290.012 102.48 289.435C102.48 288.898 102.572 288.427 102.755 288.02C102.942 287.613 103.212 287.297 103.565 287.07C103.922 286.843 104.353 286.73 104.86 286.73ZM110.246 292.1C109.529 292.1 108.954 291.872 108.521 291.415C108.087 290.958 107.871 290.298 107.871 289.435C107.871 288.895 107.962 288.422 108.146 288.015C108.329 287.608 108.597 287.293 108.951 287.07C109.304 286.843 109.736 286.73 110.246 286.73C110.959 286.73 111.529 286.963 111.956 287.43C112.382 287.897 112.596 288.565 112.596 289.435C112.596 289.962 112.506 290.425 112.326 290.825C112.149 291.225 111.886 291.538 111.536 291.765C111.189 291.988 110.759 292.1 110.246 292.1ZM110.246 291.37C110.709 291.37 111.064 291.197 111.311 290.85C111.557 290.5 111.681 290.022 111.681 289.415C111.681 289.045 111.631 288.713 111.531 288.42C111.434 288.123 111.281 287.888 111.071 287.715C110.861 287.542 110.586 287.455 110.246 287.455C109.776 287.455 109.416 287.628 109.166 287.975C108.916 288.318 108.791 288.798 108.791 289.415C108.791 289.778 108.841 290.108 108.941 290.405C109.041 290.702 109.197 290.937 109.411 291.11C109.624 291.283 109.902 291.37 110.246 291.37ZM115.618 292.1C115.258 292.097 114.928 292.03 114.628 291.9C114.328 291.767 114.086 291.57 113.903 291.31C113.723 291.05 113.633 290.727 113.633 290.34V286.83H114.558V290.245C114.558 290.582 114.661 290.855 114.868 291.065C115.078 291.275 115.393 291.38 115.813 291.38C116.193 291.38 116.498 291.282 116.728 291.085C116.961 290.885 117.078 290.588 117.078 290.195V286.83H117.998V292H117.263L117.168 291.01C117.075 291.4 116.885 291.68 116.598 291.85C116.311 292.02 115.985 292.103 115.618 292.1ZM119.509 292V286.83H120.404V287.58C120.531 287.363 120.729 287.172 120.999 287.005C121.269 286.838 121.611 286.755 122.024 286.755C122.351 286.755 122.651 286.82 122.924 286.95C123.201 287.08 123.421 287.283 123.584 287.56C123.751 287.833 123.834 288.187 123.834 288.62V292H122.909V288.71C122.909 288.307 122.802 288.008 122.589 287.815C122.379 287.618 122.106 287.52 121.769 287.52C121.536 287.52 121.317 287.558 121.114 287.635C120.911 287.708 120.746 287.822 120.619 287.975C120.492 288.125 120.429 288.315 120.429 288.545V292H119.509ZM127.663 287.505H126.498V290.72C126.498 290.997 126.541 291.167 126.628 291.23C126.718 291.29 126.885 291.32 127.128 291.32H127.693V291.94C127.626 291.963 127.53 291.983 127.403 292C127.276 292.017 127.118 292.025 126.928 292.025C126.391 292.025 126.03 291.917 125.843 291.7C125.66 291.483 125.568 291.167 125.568 290.75V287.505H124.728V286.83H125.593L125.818 285.325H126.498V286.825H127.663V287.505ZM132.316 284.775V285.735H131.371V284.775H132.316ZM132.296 286.83V292H131.401V286.83H132.296ZM135.758 292.1C135.395 292.1 135.06 292.043 134.753 291.93C134.447 291.817 134.19 291.643 133.983 291.41C133.78 291.173 133.653 290.868 133.603 290.495H134.443C134.51 290.798 134.662 291.027 134.898 291.18C135.138 291.333 135.423 291.41 135.753 291.41C136.1 291.41 136.38 291.345 136.593 291.215C136.807 291.085 136.913 290.885 136.913 290.615C136.913 290.252 136.685 290.015 136.228 289.905L135.158 289.64C134.738 289.54 134.403 289.383 134.153 289.17C133.907 288.957 133.783 288.658 133.783 288.275C133.78 287.822 133.943 287.452 134.273 287.165C134.603 286.875 135.097 286.73 135.753 286.73C136.313 286.73 136.765 286.857 137.108 287.11C137.455 287.363 137.635 287.732 137.648 288.215H136.833C136.797 287.968 136.685 287.773 136.498 287.63C136.312 287.483 136.06 287.41 135.743 287.41C135.413 287.41 135.145 287.477 134.938 287.61C134.732 287.74 134.628 287.943 134.628 288.22C134.628 288.403 134.702 288.548 134.848 288.655C134.995 288.758 135.212 288.845 135.498 288.915L136.533 289.175C136.85 289.258 137.097 289.377 137.273 289.53C137.45 289.683 137.573 289.852 137.643 290.035C137.713 290.218 137.748 290.395 137.748 290.565C137.748 291.042 137.573 291.417 137.223 291.69C136.873 291.963 136.385 292.1 135.758 292.1ZM146.99 289.245C146.99 289.828 146.895 290.335 146.705 290.765C146.515 291.192 146.206 291.522 145.78 291.755C145.356 291.985 144.795 292.1 144.095 292.1C143.391 292.1 142.828 291.983 142.405 291.75C141.981 291.513 141.675 291.178 141.485 290.745C141.298 290.312 141.205 289.795 141.205 289.195V284.77H142.69V289.305C142.69 289.845 142.82 290.24 143.08 290.49C143.34 290.737 143.678 290.86 144.095 290.86C144.511 290.86 144.851 290.737 145.115 290.49C145.381 290.243 145.515 289.848 145.515 289.305V284.77H146.99V289.245ZM151.156 292.1C150.799 292.1 150.449 292.055 150.106 291.965C149.763 291.875 149.448 291.74 149.161 291.56C148.878 291.38 148.644 291.155 148.461 290.885C148.278 290.615 148.168 290.298 148.131 289.935H149.626C149.699 290.262 149.873 290.513 150.146 290.69C150.423 290.867 150.758 290.955 151.151 290.955C151.548 290.955 151.889 290.88 152.176 290.73C152.466 290.58 152.611 290.352 152.611 290.045C152.611 289.772 152.494 289.568 152.261 289.435C152.028 289.302 151.736 289.2 151.386 289.13L150.136 288.875C149.589 288.772 149.156 288.555 148.836 288.225C148.516 287.895 148.351 287.452 148.341 286.895C148.338 286.442 148.458 286.05 148.701 285.72C148.948 285.387 149.281 285.13 149.701 284.95C150.124 284.77 150.598 284.68 151.121 284.68C151.744 284.68 152.268 284.778 152.691 284.975C153.118 285.168 153.441 285.432 153.661 285.765C153.884 286.095 153.999 286.463 154.006 286.87H152.541C152.501 286.49 152.353 286.223 152.096 286.07C151.839 285.917 151.523 285.84 151.146 285.84C150.756 285.84 150.446 285.923 150.216 286.09C149.986 286.253 149.871 286.465 149.871 286.725C149.871 286.935 149.939 287.105 150.076 287.235C150.216 287.365 150.479 287.472 150.866 287.555L152.106 287.81C152.546 287.897 152.898 288.025 153.161 288.195C153.424 288.365 153.621 288.557 153.751 288.77C153.884 288.983 153.971 289.202 154.011 289.425C154.054 289.645 154.076 289.848 154.076 290.035C154.076 290.425 153.954 290.777 153.711 291.09C153.468 291.4 153.126 291.647 152.686 291.83C152.249 292.01 151.739 292.1 151.156 292.1ZM159.594 283.735H160.859V284.73C161.279 284.803 161.639 284.942 161.939 285.145C162.242 285.348 162.474 285.597 162.634 285.89C162.797 286.183 162.875 286.502 162.869 286.845L161.394 286.87C161.347 286.55 161.24 286.298 161.074 286.115C160.907 285.932 160.63 285.84 160.244 285.84C159.847 285.84 159.534 285.923 159.304 286.09C159.074 286.253 158.959 286.465 158.959 286.725C158.959 286.935 159.029 287.102 159.169 287.225C159.312 287.345 159.58 287.457 159.974 287.56L161.139 287.845C161.795 288.002 162.269 288.272 162.559 288.655C162.852 289.035 162.999 289.495 162.999 290.035C162.999 290.582 162.804 291.035 162.414 291.395C162.024 291.752 161.495 291.973 160.829 292.06V292.955H159.569V292.065C158.885 291.985 158.332 291.773 157.909 291.43C157.489 291.087 157.245 290.598 157.179 289.965L158.699 289.935C158.775 290.265 158.947 290.517 159.214 290.69C159.48 290.86 159.814 290.945 160.214 290.945C160.574 290.945 160.869 290.86 161.099 290.69C161.332 290.52 161.449 290.305 161.449 290.045C161.449 289.778 161.364 289.58 161.194 289.45C161.024 289.317 160.762 289.21 160.409 289.13L159.224 288.875C158.67 288.765 158.229 288.547 157.899 288.22C157.569 287.893 157.4 287.452 157.394 286.895C157.39 286.502 157.482 286.155 157.669 285.855C157.859 285.552 158.119 285.303 158.449 285.11C158.782 284.917 159.164 284.788 159.594 284.725V283.735ZM165.21 292V286.585H163.92V285.76C164.54 285.76 164.987 285.673 165.26 285.5C165.534 285.323 165.687 285.08 165.72 284.77H166.69V292H165.21ZM170.998 284.67C171.858 284.67 172.536 284.992 173.033 285.635C173.529 286.278 173.778 287.2 173.778 288.4C173.778 289.597 173.531 290.515 173.038 291.155C172.548 291.792 171.868 292.11 170.998 292.11C170.121 292.11 169.436 291.792 168.943 291.155C168.453 290.518 168.208 289.602 168.208 288.405C168.208 287.202 168.456 286.278 168.953 285.635C169.453 284.992 170.134 284.67 170.998 284.67ZM170.998 290.915C171.431 290.915 171.746 290.723 171.943 290.34C172.143 289.957 172.243 289.312 172.243 288.405C172.243 287.482 172.141 286.82 171.938 286.42C171.734 286.02 171.419 285.82 170.993 285.82C170.566 285.82 170.248 286.022 170.038 286.425C169.831 286.828 169.728 287.488 169.728 288.405C169.728 289.305 169.831 289.948 170.038 290.335C170.244 290.722 170.564 290.915 170.998 290.915ZM177.899 284.77H179.334V289.175H180.449V290.4H179.334V292H177.929L177.934 290.4H174.604V289.2L177.899 284.77ZM175.954 289.175H177.934V286.525L175.954 289.175ZM181.231 292V290.41H182.831V292H181.231ZM186.527 292.11C186.073 292.11 185.652 292.023 185.262 291.85C184.875 291.677 184.558 291.433 184.312 291.12C184.065 290.803 183.927 290.433 183.897 290.01H185.287C185.347 290.29 185.48 290.518 185.687 290.695C185.893 290.868 186.153 290.955 186.467 290.955C186.813 290.955 187.117 290.873 187.377 290.71C187.64 290.547 187.837 290.287 187.967 289.93C188.1 289.573 188.147 289.107 188.107 288.53C187.963 288.797 187.745 289.01 187.452 289.17C187.158 289.327 186.81 289.405 186.407 289.405C185.917 289.405 185.482 289.313 185.102 289.13C184.725 288.943 184.428 288.68 184.212 288.34C183.998 287.997 183.892 287.59 183.892 287.12C183.892 286.647 184.005 286.225 184.232 285.855C184.458 285.485 184.775 285.195 185.182 284.985C185.588 284.775 186.065 284.67 186.612 284.67C187.225 284.67 187.753 284.817 188.197 285.11C188.643 285.4 188.985 285.813 189.222 286.35C189.462 286.883 189.582 287.512 189.582 288.235C189.582 289.528 189.31 290.498 188.767 291.145C188.223 291.788 187.477 292.11 186.527 292.11ZM186.657 288.245C186.86 288.245 187.057 288.2 187.247 288.11C187.44 288.017 187.598 287.9 187.722 287.76C187.845 287.62 187.907 287.475 187.907 287.325C187.91 286.838 187.795 286.458 187.562 286.185C187.332 285.912 187.03 285.775 186.657 285.775C186.313 285.775 186.028 285.893 185.802 286.13C185.575 286.367 185.462 286.675 185.462 287.055C185.462 287.432 185.572 287.725 185.792 287.935C186.012 288.142 186.3 288.245 186.657 288.245ZM193.224 284.67C194.084 284.67 194.762 284.992 195.259 285.635C195.756 286.278 196.004 287.2 196.004 288.4C196.004 289.597 195.757 290.515 195.264 291.155C194.774 291.792 194.094 292.11 193.224 292.11C192.347 292.11 191.662 291.792 191.169 291.155C190.679 290.518 190.434 289.602 190.434 288.405C190.434 287.202 190.682 286.278 191.179 285.635C191.679 284.992 192.361 284.67 193.224 284.67ZM193.224 290.915C193.657 290.915 193.972 290.723 194.169 290.34C194.369 289.957 194.469 289.312 194.469 288.405C194.469 287.482 194.367 286.82 194.164 286.42C193.961 286.02 193.646 285.82 193.219 285.82C192.792 285.82 192.474 286.022 192.264 286.425C192.057 286.828 191.954 287.488 191.954 288.405C191.954 289.305 192.057 289.948 192.264 290.335C192.471 290.722 192.791 290.915 193.224 290.915ZM196.989 292V290.82H198.089V292H196.989Z" fill="#36536B"/>
</g>
<defs>
<filter id="filter0_d_0_4910" x="0.567871" y="0.569458" width="417.649" height="658.861" filterUnits="userSpaceOnUse" color-interpolation-filters="sRGB">
<feFlood flood-opacity="0" result="BackgroundImageFix"/>
<feColorMatrix in="SourceAlpha" type="matrix" values="0 0 0 0 0 0 0 0 0 0 0 0 0 0 0 0 0 0 127 0" result="hardAlpha"/>
<feOffset dx="25" dy="25"/>
<feGaussianBlur stdDeviation="40"/>
<feColorMatrix type="matrix" values="0 0 0 0 0.212302 0 0 0 0 0.32521 0 0 0 0 0.419299 0 0 0 0.300727 0"/>
<feBlend mode="normal" in2="BackgroundImageFix" result="effect1_dropShadow_0_4910"/>
<feBlend mode="normal" in="SourceGraphic" in2="effect1_dropShadow_0_4910" result="shape"/>
</filter>
<filter id="filter1_d_0_4910" x="70" y="217" width="248" height="117" filterUnits="userSpaceOnUse" color-interpolation-filters="sRGB">
<feFlood flood-opacity="0" result="BackgroundImageFix"/>
<feColorMatrix in="SourceAlpha" type="matrix" values="0 0 0 0 0 0 0 0 0 0 0 0 0 0 0 0 0 0 127 0" result="hardAlpha"/>
<feMorphology radius="10" operator="erode" in="SourceAlpha" result="effect1_dropShadow_0_4910"/>
<feOffset dx="10" dy="10"/>
<feGaussianBlur stdDeviation="12.5"/>
<feColorMatrix type="matrix" values="0 0 0 0 0.212302 0 0 0 0 0.32521 0 0 0 0 0.419299 0 0 0 0.25 0"/>
<feBlend mode="normal" in2="BackgroundImageFix" result="effect1_dropShadow_0_4910"/>
<feBlend mode="normal" in="SourceGraphic" in2="effect1_dropShadow_0_4910" result="shape"/>
</filter>
<linearGradient id="paint0_linear_0_4910" x1="63.0146" y1="55" x2="63.0146" y2="67.3239" gradientUnits="userSpaceOnUse">
<stop stop-color="#454545"/>
<stop offset="0.226279" stop-color="#999999"/>
<stop offset="1" stop-color="white"/>
</linearGradient>
<linearGradient id="paint1_linear_0_4910" x1="313.103" y1="140.747" x2="303.642" y2="140.747" gradientUnits="userSpaceOnUse">
<stop stop-color="white" stop-opacity="0.01"/>
<stop offset="0.222178" stop-color="#BABABA"/>
<stop offset="0.54678" stop-color="white" stop-opacity="0.01"/>
<stop offset="1" stop-color="white" stop-opacity="0.01"/>
</linearGradient>
<linearGradient id="paint2_linear_0_4910" x1="55.568" y1="140.487" x2="65.044" y2="140.487" gradientUnits="userSpaceOnUse">
<stop stop-color="white" stop-opacity="0.01"/>
<stop offset="0.222178" stop-color="#BABABA"/>
<stop offset="0.54678" stop-color="white" stop-opacity="0.01"/>
<stop offset="1" stop-color="white" stop-opacity="0.01"/>
</linearGradient>
<linearGradient id="paint3_linear_0_4910" x1="68.907" y1="67.4445" x2="68.907" y2="528.824" gradientUnits="userSpaceOnUse">
<stop stop-color="#9CB6CD"/>
<stop offset="0.420564" stop-color="#9AB3CA"/>
<stop offset="0.716592" stop-color="#557496"/>
<stop offset="1" stop-color="#475178"/>
</linearGradient>
<clipPath id="clip0_0_4910">
<rect width="233" height="465" fill="white" transform="translate(68.0742 67.4445)"/>
</clipPath>
<clipPath id="clip1_0_4910">
<rect width="218" height="87" fill="white" transform="translate(75 222)"/>
</clipPath>
<clipPath id="clip2_0_4910">
<rect width="187" height="11" fill="white" transform="translate(91 238)"/>
</clipPath>
</defs>
</svg>
